<mxfile host="app.diagrams.net" modified="2021-03-16T23:53:17.785Z" agent="5.0 (Windows NT 10.0; Win64; x64) AppleWebKit/537.36 (KHTML, like Gecko) Chrome/89.0.4389.82 Safari/537.36" etag="UKrGieQg1IzSls5Yljng" version="14.4.6" type="github">
  <diagram id="ifhtZakYZW7wx0eeMK1i" name="Page-1">
    <mxGraphModel dx="1422" dy="762" grid="1" gridSize="10" guides="1" tooltips="1" connect="1" arrows="1" fold="1" page="1" pageScale="1" pageWidth="827" pageHeight="1169" math="0" shadow="0">
      <root>
        <mxCell id="0" />
        <mxCell id="1" parent="0" />
        <mxCell id="oAZ7tcdMzcHxjQ1AbDKF-1" value="Exercício 1&lt;br&gt;" style="rounded=0;whiteSpace=wrap;html=1;" vertex="1" parent="1">
          <mxGeometry x="690" y="20" width="120" height="60" as="geometry" />
        </mxCell>
        <mxCell id="oAZ7tcdMzcHxjQ1AbDKF-19" value="" style="edgeStyle=orthogonalEdgeStyle;rounded=0;orthogonalLoop=1;jettySize=auto;html=1;" edge="1" parent="1" source="oAZ7tcdMzcHxjQ1AbDKF-2" target="oAZ7tcdMzcHxjQ1AbDKF-3">
          <mxGeometry relative="1" as="geometry" />
        </mxCell>
        <mxCell id="oAZ7tcdMzcHxjQ1AbDKF-2" value="Crie 3 variáveis tipo&lt;br&gt;decimal (nota1, nota2 e media)" style="rounded=1;whiteSpace=wrap;html=1;" vertex="1" parent="1">
          <mxGeometry x="330" y="80" width="120" height="60" as="geometry" />
        </mxCell>
        <mxCell id="oAZ7tcdMzcHxjQ1AbDKF-3" value="Receba dois valores" style="shape=card;whiteSpace=wrap;html=1;direction=south;" vertex="1" parent="1">
          <mxGeometry x="340" y="180" width="100" height="80" as="geometry" />
        </mxCell>
        <mxCell id="oAZ7tcdMzcHxjQ1AbDKF-28" value="" style="edgeStyle=orthogonalEdgeStyle;rounded=0;orthogonalLoop=1;jettySize=auto;html=1;" edge="1" parent="1" source="oAZ7tcdMzcHxjQ1AbDKF-4" target="oAZ7tcdMzcHxjQ1AbDKF-9">
          <mxGeometry relative="1" as="geometry" />
        </mxCell>
        <mxCell id="oAZ7tcdMzcHxjQ1AbDKF-4" value="media =&lt;br&gt;(nota1 * 0.4) +&lt;br&gt;(nota2 * 0.6)" style="rhombus;whiteSpace=wrap;html=1;" vertex="1" parent="1">
          <mxGeometry x="316" y="390" width="148" height="130" as="geometry" />
        </mxCell>
        <mxCell id="oAZ7tcdMzcHxjQ1AbDKF-24" style="edgeStyle=orthogonalEdgeStyle;rounded=0;orthogonalLoop=1;jettySize=auto;html=1;entryX=0;entryY=0.5;entryDx=0;entryDy=0;" edge="1" parent="1" source="oAZ7tcdMzcHxjQ1AbDKF-6" target="oAZ7tcdMzcHxjQ1AbDKF-4">
          <mxGeometry relative="1" as="geometry">
            <mxPoint x="240" y="460" as="targetPoint" />
            <Array as="points">
              <mxPoint x="240" y="455" />
            </Array>
          </mxGeometry>
        </mxCell>
        <mxCell id="oAZ7tcdMzcHxjQ1AbDKF-6" value="&lt;span&gt;nota1 = Nota 1&lt;/span&gt;" style="shape=document;whiteSpace=wrap;html=1;boundedLbl=1;" vertex="1" parent="1">
          <mxGeometry x="190" y="280" width="120" height="80" as="geometry" />
        </mxCell>
        <mxCell id="oAZ7tcdMzcHxjQ1AbDKF-27" style="edgeStyle=orthogonalEdgeStyle;rounded=0;orthogonalLoop=1;jettySize=auto;html=1;entryX=1;entryY=0.5;entryDx=0;entryDy=0;" edge="1" parent="1" source="oAZ7tcdMzcHxjQ1AbDKF-8" target="oAZ7tcdMzcHxjQ1AbDKF-4">
          <mxGeometry relative="1" as="geometry">
            <Array as="points">
              <mxPoint x="540" y="455" />
            </Array>
          </mxGeometry>
        </mxCell>
        <mxCell id="oAZ7tcdMzcHxjQ1AbDKF-8" value="&lt;span&gt;nota2 = Nota 2&lt;/span&gt;" style="shape=document;whiteSpace=wrap;html=1;boundedLbl=1;" vertex="1" parent="1">
          <mxGeometry x="470" y="280" width="120" height="80" as="geometry" />
        </mxCell>
        <mxCell id="oAZ7tcdMzcHxjQ1AbDKF-9" value="Exiba media ponderada (media)" style="rounded=1;whiteSpace=wrap;html=1;" vertex="1" parent="1">
          <mxGeometry x="320" y="585" width="140" height="70" as="geometry" />
        </mxCell>
        <mxCell id="oAZ7tcdMzcHxjQ1AbDKF-10" value="" style="endArrow=none;html=1;" edge="1" parent="1">
          <mxGeometry width="50" height="50" relative="1" as="geometry">
            <mxPoint x="10" y="760" as="sourcePoint" />
            <mxPoint x="810" y="760" as="targetPoint" />
          </mxGeometry>
        </mxCell>
        <mxCell id="oAZ7tcdMzcHxjQ1AbDKF-11" value="Exercício 2" style="rounded=0;whiteSpace=wrap;html=1;" vertex="1" parent="1">
          <mxGeometry x="690" y="780" width="120" height="60" as="geometry" />
        </mxCell>
        <mxCell id="oAZ7tcdMzcHxjQ1AbDKF-30" value="" style="edgeStyle=orthogonalEdgeStyle;rounded=0;orthogonalLoop=1;jettySize=auto;html=1;" edge="1" parent="1" source="oAZ7tcdMzcHxjQ1AbDKF-12" target="oAZ7tcdMzcHxjQ1AbDKF-13">
          <mxGeometry relative="1" as="geometry" />
        </mxCell>
        <mxCell id="oAZ7tcdMzcHxjQ1AbDKF-12" value="Crie 4 variáveis tipo&lt;br&gt;decimal (vlr1, vlr2, vlr3,&amp;nbsp;salarioLiquido)" style="rounded=1;whiteSpace=wrap;html=1;" vertex="1" parent="1">
          <mxGeometry x="330" y="840" width="120" height="60" as="geometry" />
        </mxCell>
        <mxCell id="oAZ7tcdMzcHxjQ1AbDKF-36" value="" style="edgeStyle=orthogonalEdgeStyle;rounded=0;orthogonalLoop=1;jettySize=auto;html=1;" edge="1" parent="1" source="oAZ7tcdMzcHxjQ1AbDKF-13" target="oAZ7tcdMzcHxjQ1AbDKF-15">
          <mxGeometry relative="1" as="geometry" />
        </mxCell>
        <mxCell id="oAZ7tcdMzcHxjQ1AbDKF-13" value="Receba três valores" style="shape=card;whiteSpace=wrap;html=1;direction=south;" vertex="1" parent="1">
          <mxGeometry x="340" y="940" width="100" height="80" as="geometry" />
        </mxCell>
        <mxCell id="oAZ7tcdMzcHxjQ1AbDKF-14" value="&lt;span&gt;vlr1 = Salario Bruto&lt;/span&gt;" style="shape=document;whiteSpace=wrap;html=1;boundedLbl=1;" vertex="1" parent="1">
          <mxGeometry x="78" y="1070" width="120" height="80" as="geometry" />
        </mxCell>
        <mxCell id="oAZ7tcdMzcHxjQ1AbDKF-41" value="" style="edgeStyle=orthogonalEdgeStyle;rounded=0;orthogonalLoop=1;jettySize=auto;html=1;" edge="1" parent="1" source="oAZ7tcdMzcHxjQ1AbDKF-15" target="oAZ7tcdMzcHxjQ1AbDKF-17">
          <mxGeometry relative="1" as="geometry" />
        </mxCell>
        <mxCell id="oAZ7tcdMzcHxjQ1AbDKF-15" value="&lt;span&gt;vlr2 = Desconto&lt;/span&gt;" style="shape=document;whiteSpace=wrap;html=1;boundedLbl=1;" vertex="1" parent="1">
          <mxGeometry x="330" y="1070" width="120" height="80" as="geometry" />
        </mxCell>
        <mxCell id="oAZ7tcdMzcHxjQ1AbDKF-42" style="edgeStyle=orthogonalEdgeStyle;rounded=0;orthogonalLoop=1;jettySize=auto;html=1;entryX=1;entryY=0.5;entryDx=0;entryDy=0;" edge="1" parent="1" source="oAZ7tcdMzcHxjQ1AbDKF-16" target="oAZ7tcdMzcHxjQ1AbDKF-17">
          <mxGeometry relative="1" as="geometry">
            <Array as="points">
              <mxPoint x="645" y="1255" />
            </Array>
          </mxGeometry>
        </mxCell>
        <mxCell id="oAZ7tcdMzcHxjQ1AbDKF-16" value="&lt;span&gt;vlr3 = Comissão&lt;/span&gt;" style="shape=document;whiteSpace=wrap;html=1;boundedLbl=1;" vertex="1" parent="1">
          <mxGeometry x="585" y="1070" width="120" height="80" as="geometry" />
        </mxCell>
        <mxCell id="oAZ7tcdMzcHxjQ1AbDKF-43" value="" style="edgeStyle=orthogonalEdgeStyle;rounded=0;orthogonalLoop=1;jettySize=auto;html=1;" edge="1" parent="1" source="oAZ7tcdMzcHxjQ1AbDKF-17" target="oAZ7tcdMzcHxjQ1AbDKF-18">
          <mxGeometry relative="1" as="geometry" />
        </mxCell>
        <mxCell id="oAZ7tcdMzcHxjQ1AbDKF-17" value="salarioLiquido&amp;nbsp; =&lt;br&gt;&lt;br&gt;vlr1 - vlr2 + vlr3" style="rhombus;whiteSpace=wrap;html=1;" vertex="1" parent="1">
          <mxGeometry x="316" y="1190" width="148" height="130" as="geometry" />
        </mxCell>
        <mxCell id="oAZ7tcdMzcHxjQ1AbDKF-18" value="Exiba Salário Líquido (salarioLíquido)" style="rounded=1;whiteSpace=wrap;html=1;" vertex="1" parent="1">
          <mxGeometry x="320" y="1370" width="140" height="70" as="geometry" />
        </mxCell>
        <mxCell id="oAZ7tcdMzcHxjQ1AbDKF-21" value="" style="endArrow=none;html=1;entryX=1;entryY=0.5;entryDx=0;entryDy=0;entryPerimeter=0;" edge="1" parent="1" target="oAZ7tcdMzcHxjQ1AbDKF-3">
          <mxGeometry width="50" height="50" relative="1" as="geometry">
            <mxPoint x="390" y="320" as="sourcePoint" />
            <mxPoint x="440" y="290" as="targetPoint" />
          </mxGeometry>
        </mxCell>
        <mxCell id="oAZ7tcdMzcHxjQ1AbDKF-22" value="" style="endArrow=classic;html=1;entryX=0;entryY=0.5;entryDx=0;entryDy=0;" edge="1" parent="1" target="oAZ7tcdMzcHxjQ1AbDKF-8">
          <mxGeometry width="50" height="50" relative="1" as="geometry">
            <mxPoint x="390" y="320" as="sourcePoint" />
            <mxPoint x="460" y="320" as="targetPoint" />
          </mxGeometry>
        </mxCell>
        <mxCell id="oAZ7tcdMzcHxjQ1AbDKF-23" value="" style="endArrow=classic;html=1;entryX=1;entryY=0.5;entryDx=0;entryDy=0;" edge="1" parent="1" target="oAZ7tcdMzcHxjQ1AbDKF-6">
          <mxGeometry width="50" height="50" relative="1" as="geometry">
            <mxPoint x="390" y="320" as="sourcePoint" />
            <mxPoint x="320" y="319.5" as="targetPoint" />
          </mxGeometry>
        </mxCell>
        <mxCell id="oAZ7tcdMzcHxjQ1AbDKF-32" style="edgeStyle=orthogonalEdgeStyle;rounded=0;orthogonalLoop=1;jettySize=auto;html=1;entryX=0.5;entryY=0;entryDx=0;entryDy=0;" edge="1" parent="1" source="oAZ7tcdMzcHxjQ1AbDKF-13" target="oAZ7tcdMzcHxjQ1AbDKF-14">
          <mxGeometry relative="1" as="geometry">
            <mxPoint x="340" y="980" as="sourcePoint" />
            <mxPoint x="138" y="1070" as="targetPoint" />
            <Array as="points">
              <mxPoint x="390" y="1040" />
              <mxPoint x="138" y="1040" />
            </Array>
          </mxGeometry>
        </mxCell>
        <mxCell id="oAZ7tcdMzcHxjQ1AbDKF-38" style="edgeStyle=orthogonalEdgeStyle;rounded=0;orthogonalLoop=1;jettySize=auto;html=1;entryX=0.5;entryY=0;entryDx=0;entryDy=0;" edge="1" parent="1" source="oAZ7tcdMzcHxjQ1AbDKF-13" target="oAZ7tcdMzcHxjQ1AbDKF-16">
          <mxGeometry relative="1" as="geometry">
            <mxPoint x="440" y="980" as="sourcePoint" />
            <mxPoint x="645" y="1070" as="targetPoint" />
            <Array as="points">
              <mxPoint x="390" y="1040" />
              <mxPoint x="645" y="1040" />
            </Array>
          </mxGeometry>
        </mxCell>
        <mxCell id="oAZ7tcdMzcHxjQ1AbDKF-40" style="edgeStyle=orthogonalEdgeStyle;rounded=0;orthogonalLoop=1;jettySize=auto;html=1;entryX=0;entryY=0.5;entryDx=0;entryDy=0;" edge="1" parent="1" source="oAZ7tcdMzcHxjQ1AbDKF-14" target="oAZ7tcdMzcHxjQ1AbDKF-17">
          <mxGeometry relative="1" as="geometry">
            <mxPoint x="198" y="1110" as="sourcePoint" />
            <mxPoint x="316" y="1255" as="targetPoint" />
            <Array as="points">
              <mxPoint x="130" y="1255" />
            </Array>
          </mxGeometry>
        </mxCell>
      </root>
    </mxGraphModel>
  </diagram>
</mxfile>
